<svg width="470" height="110" viewBox="0 0 636 115" fill="none" xmlns="http://www.w3.org/2000/svg">
<g style="mix-blend-mode:multiply" opacity="0.33">
<path d="M36.6308 25.9897C26.0761 34.8176 8.47914 37.3907 1 37.5738V92.8872H635V8.64025C626.017 10.2601 604.82 17.5499 591.899 33.7505C575.749 54.0012 551.409 41.1474 541.627 37.2671C531.846 33.3867 514.558 32.1741 503.866 32.7804C493.175 33.3867 476.342 34.7206 468.38 27.2024C460.418 19.6841 452.381 14.7952 430.619 16.6526C411.283 17.0164 402.867 16.8951 393.768 13.2573C384.669 9.61944 357.599 1.13114 338.264 11.5596C318.928 21.9881 298.91 26.7173 277.983 12.651C257.055 -1.41536 234.762 0.282305 226.118 4.89024C217.474 9.49818 211.782 23.5442 190.952 27.6726C173.249 29.5484 162.907 32.6324 144.227 42.9664C120.114 56.3051 105.556 44.5428 94.4095 30.2339C83.2632 15.925 49.8242 14.955 36.6308 25.9897Z" fill="url(#paint0_linear_1_23493)"/>
</g>
<path d="M2.03906 37.4793C9.49414 37.2962 27.0345 34.723 37.5553 25.8952C50.7062 14.8604 84.0376 15.8305 95.148 30.1393C106.258 44.4482 120.77 56.2106 144.805 42.8718C168.84 29.533 171.03 31.2294 191.741 27.8354C212.652 24.4085 213.132 12.8801 228.014 4.92112C236.631 0.313171 257.27 -1.50993 278.13 12.5564C298.991 26.6227 318.944 21.8935 338.218 11.4651C357.491 1.03657 384.473 9.52487 393.543 13.1627C402.613 16.8006 413.458 17.9296 430.276 16.558C451.229 14.8492 459.979 19.5896 467.915 27.1078C475.851 34.626 492.63 33.2921 503.287 32.6858C513.944 32.0795 531.177 33.2921 540.927 37.1725C550.677 41.0529 574.938 53.9066 591.037 33.6559C603.916 17.4554 625.045 10.1655 633.999 8.54568" stroke="#398D94" stroke-width="3" stroke-linecap="round" stroke-linejoin="round"/>
<line x1="173.5" y1="29.5596" x2="173.5" y2="93.4406" stroke="#398D94" stroke-width="2" stroke-linecap="round"/>
<g filter="url(#filter0_d_1_23493)">
<ellipse cx="173.547" cy="28.2776" rx="4" ry="4.00126" fill="#398D94"/>
<path d="M176.547 28.2776C176.547 29.9355 175.203 31.2789 173.547 31.2789C171.89 31.2789 170.547 29.9355 170.547 28.2776C170.547 26.6198 171.89 25.2764 173.547 25.2764C175.203 25.2764 176.547 26.6198 176.547 28.2776Z" stroke="white" stroke-width="2"/>
</g>
<path d="M11.9415 110.44V102.04H12.9015L17.4135 108.52V102.04H18.4335V110.44H17.4735L12.9615 103.96V110.44H11.9415ZM21.1546 110.116C20.6986 109.852 20.3386 109.492 20.0866 109.012C19.8226 108.544 19.7026 108.004 19.7026 107.38C19.7026 106.768 19.8226 106.228 20.0866 105.748C20.3386 105.28 20.6986 104.908 21.1546 104.644C21.6106 104.38 22.1386 104.248 22.7386 104.248C23.3266 104.248 23.8546 104.38 24.3106 104.644C24.7666 104.908 25.1266 105.28 25.3906 105.748C25.6426 106.228 25.7746 106.768 25.7746 107.38C25.7746 108.004 25.6426 108.544 25.3906 109.012C25.1266 109.492 24.7666 109.852 24.3106 110.116C23.8546 110.38 23.3266 110.512 22.7386 110.512C22.1386 110.512 21.6106 110.38 21.1546 110.116ZM23.7946 109.348C24.1066 109.156 24.3466 108.892 24.5146 108.544C24.6826 108.208 24.7666 107.812 24.7666 107.38C24.7666 106.948 24.6826 106.564 24.5146 106.216C24.3466 105.88 24.1066 105.604 23.7946 105.412C23.4826 105.22 23.1346 105.124 22.7386 105.124C22.3306 105.124 21.9826 105.22 21.6706 105.412C21.3586 105.604 21.1306 105.88 20.9626 106.216C20.7946 106.564 20.7106 106.948 20.7106 107.38C20.7106 107.812 20.7946 108.208 20.9626 108.544C21.1306 108.892 21.3586 109.156 21.6706 109.348C21.9826 109.54 22.3306 109.636 22.7386 109.636C23.1346 109.636 23.4826 109.54 23.7946 109.348ZM26.0566 104.32H27.1126L28.9606 109.324L30.7966 104.32H31.8286L29.5366 110.44H28.3486L26.0566 104.32Z" fill="#718096"/>
<path d="M110.485 102.04H112.969C113.833 102.04 114.577 102.22 115.213 102.568C115.849 102.916 116.341 103.408 116.677 104.032C117.013 104.668 117.193 105.4 117.193 106.24C117.193 107.08 117.013 107.812 116.677 108.448C116.341 109.084 115.849 109.576 115.213 109.924C114.577 110.272 113.833 110.44 112.969 110.44H110.485V102.04ZM112.969 109.48C113.965 109.48 114.745 109.192 115.297 108.604C115.849 108.028 116.125 107.236 116.125 106.24C116.125 105.244 115.849 104.452 115.297 103.876C114.745 103.3 113.977 103 112.969 103H111.529V109.48H112.969ZM118.512 105.736C118.752 105.268 119.1 104.908 119.544 104.644C119.976 104.38 120.48 104.248 121.056 104.248C121.608 104.248 122.112 104.368 122.544 104.596C122.976 104.836 123.312 105.172 123.564 105.604C123.804 106.048 123.936 106.564 123.96 107.152C123.96 107.248 123.948 107.38 123.936 107.572H119.184V107.656C119.196 108.256 119.376 108.736 119.736 109.096C120.084 109.456 120.54 109.636 121.116 109.636C121.548 109.636 121.92 109.528 122.232 109.312C122.544 109.096 122.748 108.784 122.856 108.388H123.852C123.732 109.012 123.432 109.528 122.952 109.924C122.472 110.32 121.884 110.512 121.188 110.512C120.576 110.512 120.048 110.392 119.592 110.128C119.136 109.864 118.776 109.504 118.524 109.024C118.272 108.544 118.152 108.004 118.152 107.38C118.152 106.756 118.272 106.216 118.512 105.736ZM122.94 106.756C122.892 106.24 122.688 105.832 122.352 105.544C122.016 105.256 121.584 105.112 121.068 105.112C120.6 105.112 120.192 105.268 119.844 105.568C119.484 105.88 119.292 106.276 119.244 106.756H122.94ZM129.643 109.936C129.163 110.32 128.563 110.512 127.843 110.512C127.243 110.512 126.727 110.38 126.283 110.116C125.827 109.852 125.479 109.492 125.239 109.012C124.987 108.532 124.867 107.992 124.867 107.368C124.867 106.756 124.987 106.216 125.239 105.736C125.491 105.268 125.851 104.908 126.307 104.644C126.763 104.38 127.279 104.248 127.879 104.248C128.599 104.248 129.187 104.44 129.655 104.824C130.123 105.208 130.423 105.736 130.543 106.408H129.547C129.451 106.024 129.247 105.712 128.947 105.472C128.635 105.244 128.275 105.124 127.843 105.124C127.255 105.124 126.775 105.34 126.415 105.748C126.055 106.168 125.875 106.708 125.875 107.368C125.875 108.04 126.055 108.592 126.415 109.012C126.775 109.432 127.255 109.636 127.843 109.636C128.287 109.636 128.659 109.528 128.971 109.288C129.271 109.06 129.463 108.736 129.559 108.328H130.543C130.411 109.012 130.111 109.552 129.643 109.936Z" fill="#718096"/>
<path d="M213.852 102.04V108.46C213.852 109.108 213.684 109.6 213.348 109.936C213.012 110.272 212.52 110.44 211.872 110.44H210.78V109.456H211.74C212.112 109.456 212.388 109.372 212.556 109.204C212.724 109.036 212.808 108.76 212.808 108.376V102.04H213.852ZM221.06 109.54V110.44H220.52C220.124 110.44 219.848 110.368 219.68 110.2C219.512 110.044 219.416 109.804 219.416 109.492C218.936 110.176 218.252 110.512 217.364 110.512C216.68 110.512 216.128 110.356 215.72 110.032C215.312 109.72 215.108 109.276 215.108 108.724C215.108 108.112 215.312 107.644 215.732 107.308C216.152 106.984 216.764 106.816 217.568 106.816H219.368V106.396C219.368 106 219.224 105.688 218.96 105.46C218.696 105.244 218.324 105.124 217.844 105.124C217.412 105.124 217.064 105.22 216.788 105.412C216.512 105.604 216.344 105.844 216.284 106.156H215.3C215.372 105.556 215.636 105.088 216.092 104.752C216.548 104.416 217.148 104.248 217.892 104.248C218.672 104.248 219.272 104.44 219.704 104.824C220.136 105.208 220.352 105.748 220.352 106.456V109.096C220.352 109.396 220.484 109.54 220.76 109.54H221.06ZM219.368 107.644H217.472C216.56 107.644 216.104 107.992 216.104 108.664C216.104 108.976 216.224 109.216 216.464 109.396C216.704 109.588 217.028 109.672 217.436 109.672C218.036 109.672 218.504 109.516 218.852 109.204C219.188 108.892 219.368 108.472 219.368 107.944V107.644ZM226.604 104.92C227.06 105.376 227.288 106.072 227.288 107.032V110.44H226.304V107.092C226.304 106.468 226.16 105.988 225.872 105.652C225.584 105.316 225.176 105.148 224.648 105.148C224.072 105.148 223.616 105.352 223.292 105.748C222.956 106.156 222.8 106.696 222.8 107.38V110.44H221.816V104.32H222.668L222.8 105.148C223.256 104.548 223.928 104.248 224.816 104.248C225.56 104.248 226.148 104.476 226.604 104.92Z" fill="#718096"/>
<path d="M308.943 102.04H314.163V103H309.987V105.808H313.443V106.768H309.987V110.44H308.943V102.04ZM314.826 105.736C315.066 105.268 315.414 104.908 315.858 104.644C316.29 104.38 316.794 104.248 317.37 104.248C317.922 104.248 318.426 104.368 318.858 104.596C319.29 104.836 319.626 105.172 319.878 105.604C320.118 106.048 320.25 106.564 320.274 107.152C320.274 107.248 320.262 107.38 320.25 107.572H315.498V107.656C315.51 108.256 315.69 108.736 316.05 109.096C316.398 109.456 316.854 109.636 317.43 109.636C317.862 109.636 318.234 109.528 318.546 109.312C318.858 109.096 319.062 108.784 319.17 108.388H320.166C320.046 109.012 319.746 109.528 319.266 109.924C318.786 110.32 318.198 110.512 317.502 110.512C316.89 110.512 316.362 110.392 315.906 110.128C315.45 109.864 315.09 109.504 314.838 109.024C314.586 108.544 314.466 108.004 314.466 107.38C314.466 106.756 314.586 106.216 314.826 105.736ZM319.254 106.756C319.206 106.24 319.002 105.832 318.666 105.544C318.33 105.256 317.898 105.112 317.382 105.112C316.914 105.112 316.506 105.268 316.158 105.568C315.798 105.88 315.606 106.276 315.558 106.756H319.254ZM325.993 104.62C326.437 104.872 326.785 105.232 327.037 105.7C327.289 106.18 327.421 106.732 327.421 107.38C327.421 108.004 327.289 108.544 327.037 109.012C326.785 109.492 326.437 109.852 325.993 110.116C325.537 110.38 325.033 110.512 324.481 110.512C323.977 110.512 323.557 110.428 323.209 110.248C322.849 110.068 322.573 109.816 322.381 109.504L322.249 110.44H321.397V102.04H322.381V105.304C322.885 104.608 323.593 104.248 324.481 104.248C325.045 104.248 325.549 104.38 325.993 104.62ZM325.849 109.012C326.221 108.592 326.413 108.052 326.413 107.38C326.413 106.72 326.221 106.18 325.849 105.76C325.477 105.34 324.985 105.124 324.385 105.124C323.989 105.124 323.641 105.22 323.329 105.412C323.017 105.604 322.789 105.868 322.621 106.204C322.453 106.54 322.369 106.924 322.369 107.356C322.369 107.8 322.453 108.196 322.621 108.544C322.789 108.892 323.017 109.156 323.329 109.348C323.641 109.54 323.989 109.636 324.385 109.636C324.985 109.636 325.477 109.432 325.849 109.012Z" fill="#718096"/>
<path d="M407.322 102.04H408.642L411.618 109.012L414.558 102.04H415.854V110.44H414.834V103.816L412.05 110.44H411.126L408.342 103.816V110.44H407.322V102.04ZM423.063 109.54V110.44H422.523C422.127 110.44 421.851 110.368 421.683 110.2C421.515 110.044 421.419 109.804 421.419 109.492C420.939 110.176 420.255 110.512 419.367 110.512C418.683 110.512 418.131 110.356 417.723 110.032C417.315 109.72 417.111 109.276 417.111 108.724C417.111 108.112 417.315 107.644 417.735 107.308C418.155 106.984 418.767 106.816 419.571 106.816H421.371V106.396C421.371 106 421.227 105.688 420.963 105.46C420.699 105.244 420.327 105.124 419.847 105.124C419.415 105.124 419.067 105.22 418.791 105.412C418.515 105.604 418.347 105.844 418.287 106.156H417.303C417.375 105.556 417.639 105.088 418.095 104.752C418.551 104.416 419.151 104.248 419.895 104.248C420.675 104.248 421.275 104.44 421.707 104.824C422.139 105.208 422.355 105.748 422.355 106.456V109.096C422.355 109.396 422.487 109.54 422.763 109.54H423.063ZM421.371 107.644H419.475C418.563 107.644 418.107 107.992 418.107 108.664C418.107 108.976 418.227 109.216 418.467 109.396C418.707 109.588 419.031 109.672 419.439 109.672C420.039 109.672 420.507 109.516 420.855 109.204C421.191 108.892 421.371 108.472 421.371 107.944V107.644ZM426.927 104.32V105.28H426.435C425.847 105.28 425.427 105.484 425.175 105.868C424.923 106.264 424.803 106.744 424.803 107.32V110.44H423.819V104.32H424.671L424.803 105.244C424.971 104.968 425.199 104.74 425.487 104.572C425.763 104.404 426.147 104.32 426.651 104.32H426.927Z" fill="#718096"/>
<path d="M506.266 110.44L509.47 102.04H510.706L513.898 110.44H512.782L511.894 108.172H508.234L507.346 110.44H506.266ZM508.546 107.224H511.582L510.058 103.18L508.546 107.224ZM519.3 104.62C519.744 104.872 520.092 105.232 520.344 105.7C520.596 106.18 520.728 106.732 520.728 107.38C520.728 108.004 520.596 108.544 520.344 109.012C520.092 109.492 519.744 109.852 519.3 110.116C518.844 110.38 518.34 110.512 517.788 110.512C517.284 110.512 516.864 110.428 516.516 110.248C516.156 110.068 515.88 109.816 515.688 109.504V112.84H514.704V104.32H515.556L515.688 105.304C516.192 104.608 516.9 104.248 517.788 104.248C518.352 104.248 518.856 104.38 519.3 104.62ZM519.156 109.012C519.528 108.592 519.72 108.052 519.72 107.38C519.72 106.72 519.528 106.18 519.156 105.76C518.784 105.34 518.292 105.124 517.692 105.124C517.296 105.124 516.948 105.22 516.636 105.412C516.324 105.604 516.096 105.868 515.928 106.204C515.76 106.54 515.676 106.924 515.676 107.356C515.676 107.8 515.76 108.196 515.928 108.544C516.096 108.892 516.324 109.156 516.636 109.348C516.948 109.54 517.296 109.636 517.692 109.636C518.292 109.636 518.784 109.432 519.156 109.012ZM524.961 104.32V105.28H524.469C523.881 105.28 523.461 105.484 523.209 105.868C522.957 106.264 522.837 106.744 522.837 107.32V110.44H521.853V104.32H522.705L522.837 105.244C523.005 104.968 523.233 104.74 523.521 104.572C523.797 104.404 524.181 104.32 524.685 104.32H524.961Z" fill="#718096"/>
<path d="M604.116 102.04H605.436L608.412 109.012L611.352 102.04H612.648V110.44H611.628V103.816L608.844 110.44H607.92L605.136 103.816V110.44H604.116V102.04ZM619.856 109.54V110.44H619.316C618.92 110.44 618.644 110.368 618.476 110.2C618.308 110.044 618.212 109.804 618.212 109.492C617.732 110.176 617.048 110.512 616.16 110.512C615.476 110.512 614.924 110.356 614.516 110.032C614.108 109.72 613.904 109.276 613.904 108.724C613.904 108.112 614.108 107.644 614.528 107.308C614.948 106.984 615.56 106.816 616.364 106.816H618.164V106.396C618.164 106 618.02 105.688 617.756 105.46C617.492 105.244 617.12 105.124 616.64 105.124C616.208 105.124 615.86 105.22 615.584 105.412C615.308 105.604 615.14 105.844 615.08 106.156H614.096C614.168 105.556 614.432 105.088 614.888 104.752C615.344 104.416 615.944 104.248 616.688 104.248C617.468 104.248 618.068 104.44 618.5 104.824C618.932 105.208 619.148 105.748 619.148 106.456V109.096C619.148 109.396 619.28 109.54 619.556 109.54H619.856ZM618.164 107.644H616.268C615.356 107.644 614.9 107.992 614.9 108.664C614.9 108.976 615.02 109.216 615.26 109.396C615.5 109.588 615.824 109.672 616.232 109.672C616.832 109.672 617.3 109.516 617.648 109.204C617.984 108.892 618.164 108.472 618.164 107.944V107.644ZM620.869 104.32L622.753 109.312L624.577 104.32H625.621L622.801 111.472C622.657 111.844 622.525 112.12 622.417 112.3C622.297 112.492 622.165 112.624 621.997 112.708C621.829 112.804 621.601 112.84 621.325 112.84H620.149V111.94H621.025C621.217 111.94 621.361 111.928 621.457 111.88C621.553 111.844 621.625 111.784 621.685 111.688C621.745 111.592 621.817 111.436 621.913 111.22L622.225 110.488L619.825 104.32H620.869Z" fill="#718096"/>
<defs>
<filter id="filter0_d_1_23493" x="161.547" y="24.2764" width="24" height="24.0024" filterUnits="userSpaceOnUse" color-interpolation-filters="sRGB">
<feFlood flood-opacity="0" result="BackgroundImageFix"/>
<feColorMatrix in="SourceAlpha" type="matrix" values="0 0 0 0 0 0 0 0 0 0 0 0 0 0 0 0 0 0 127 0" result="hardAlpha"/>
<feOffset dy="8"/>
<feGaussianBlur stdDeviation="4"/>
<feComposite in2="hardAlpha" operator="out"/>
<feColorMatrix type="matrix" values="0 0 0 0 0.0509804 0 0 0 0 0.0392157 0 0 0 0 0.172549 0 0 0 0.08 0"/>
<feBlend mode="normal" in2="BackgroundImageFix" result="effect1_dropShadow_1_23493"/>
<feBlend mode="normal" in="SourceGraphic" in2="effect1_dropShadow_1_23493" result="shape"/>
</filter>
<linearGradient id="paint0_linear_1_23493" x1="318" y1="1.57568" x2="318" y2="95.968" gradientUnits="userSpaceOnUse">
<stop stop-color="#398D94"/>
<stop offset="0.46679" stop-color="#398D94" stop-opacity="0.5"/>
<stop offset="1" stop-color="white"/>
</linearGradient>
</defs>
</svg>
