<svg width="308" height="308" viewBox="0 0 308 308" fill="none" xmlns="http://www.w3.org/2000/svg">
<g filter="url(#filter0_d_1_13076)">
<circle cx="154" cy="152" r="125" fill="white"/>
</g>
<path d="M265.026 152.759C270.322 152.759 274.655 148.459 274.232 143.18C273.008 127.917 268.869 113 262.007 99.2462C253.715 82.6264 241.674 68.1611 226.834 56.9917C211.994 45.8223 194.762 38.2543 176.496 34.8851C161.381 32.0969 145.9 32.2472 130.895 35.2949C125.705 36.349 122.772 41.7027 124.238 46.7917C125.703 51.8808 131.013 54.7701 136.218 53.7952C148.35 51.5229 160.825 51.4959 173.017 53.7449C188.36 56.5751 202.835 62.9321 215.301 72.3145C227.766 81.6968 237.881 93.8476 244.846 107.808C250.381 118.902 253.807 130.897 254.981 143.184C255.485 148.456 259.731 152.759 265.026 152.759Z" fill="#DC2626"/>
<path d="M117.405 49.0027C115.611 44.0198 110.098 41.3993 105.274 43.5854C90.3421 50.3527 76.9552 60.1128 65.9451 72.2594C62.3884 76.1832 63.197 82.2341 67.3924 85.4658C71.5879 88.6976 77.5773 87.8796 81.1934 84.0105C89.8911 74.704 100.277 67.1315 111.798 61.6971C116.588 59.4378 119.199 53.9856 117.405 49.0027Z" fill="#34A853"/>
<path d="M63.2645 91.1953C58.8708 88.2387 52.8754 89.3871 50.2794 94.003C46.6331 100.487 43.5982 107.295 41.214 114.341C39.5167 119.358 42.6707 124.584 47.8067 125.876C52.9428 127.167 58.1094 124.029 59.8831 119.039C61.6325 114.117 63.7624 109.338 66.2533 104.747C68.7786 100.092 67.6582 94.1518 63.2645 91.1953Z" fill="#ADB6B7" fill-opacity="0.5"/>
<path d="M46.5065 131.713C41.308 130.703 36.234 134.096 35.642 139.359C35.1742 143.518 34.9244 147.698 34.8938 151.882C34.8551 157.178 39.4889 161.152 44.7708 160.767C50.0527 160.383 53.9748 155.783 54.0942 150.489C54.1504 147.997 54.299 145.509 54.5399 143.029C55.0516 137.758 51.705 132.724 46.5065 131.713Z" fill="#F49D1B"/>
<path d="M51.0458 190.243C46.0652 192.043 43.4519 197.56 45.6443 202.38C54.1583 221.101 67.3723 237.37 84.0683 249.561C100.764 261.752 120.284 269.386 140.708 271.796C145.967 272.416 150.427 268.247 150.625 262.955C150.823 257.663 146.682 253.259 141.433 252.558C124.83 250.342 108.987 244.01 95.3779 234.073C81.7685 224.135 70.9134 210.973 63.7474 195.833C61.4819 191.046 56.0263 188.442 51.0458 190.243Z" fill="#72B3B8"/>
<path d="M46.6019 174.289C41.4079 175.323 37.9979 180.387 39.4436 185.481C45.8733 208.14 58.8625 228.478 76.8746 243.874C94.8867 259.269 116.999 268.933 140.383 271.757C145.641 272.392 150.111 268.235 150.324 262.943C150.537 257.652 146.408 253.237 141.16 252.522C122.081 249.922 104.074 241.893 89.3351 229.295C74.5963 216.698 63.8613 200.16 58.3232 181.719C56.8 176.646 51.7958 173.255 46.6019 174.289Z" fill="#72B3B8"/>
<path d="M274.615 152.759C274.615 218.957 220.951 272.621 154.753 272.621C88.5548 272.621 34.8906 218.957 34.8906 152.759C34.8906 86.5607 88.5548 32.8965 154.753 32.8965C220.951 32.8965 274.615 86.5607 274.615 152.759ZM54.0686 152.759C54.0686 208.365 99.1466 253.443 154.753 253.443C210.359 253.443 255.437 208.365 255.437 152.759C255.437 97.1524 210.359 52.0745 154.753 52.0745C99.1466 52.0745 54.0686 97.1524 54.0686 152.759Z" fill="#F4F4F4"/>
<path d="M87.3924 122.629V112.829H88.5124L93.7764 120.389V112.829H94.9664V122.629H93.8464L88.5824 115.069V122.629H87.3924ZM98.141 122.251C97.609 121.943 97.189 121.523 96.895 120.963C96.587 120.417 96.447 119.787 96.447 119.059C96.447 118.345 96.587 117.715 96.895 117.155C97.189 116.609 97.609 116.175 98.141 115.867C98.673 115.559 99.289 115.405 99.989 115.405C100.675 115.405 101.291 115.559 101.823 115.867C102.355 116.175 102.775 116.609 103.083 117.155C103.377 117.715 103.531 118.345 103.531 119.059C103.531 119.787 103.377 120.417 103.083 120.963C102.775 121.523 102.355 121.943 101.823 122.251C101.291 122.559 100.675 122.713 99.989 122.713C99.289 122.713 98.673 122.559 98.141 122.251ZM101.221 121.355C101.585 121.131 101.865 120.823 102.061 120.417C102.257 120.025 102.355 119.563 102.355 119.059C102.355 118.555 102.257 118.107 102.061 117.701C101.865 117.309 101.585 116.987 101.221 116.763C100.857 116.539 100.451 116.427 99.989 116.427C99.513 116.427 99.107 116.539 98.743 116.763C98.379 116.987 98.113 117.309 97.917 117.701C97.721 118.107 97.623 118.555 97.623 119.059C97.623 119.563 97.721 120.025 97.917 120.417C98.113 120.823 98.379 121.131 98.743 121.355C99.107 121.579 99.513 121.691 99.989 121.691C100.451 121.691 100.857 121.579 101.221 121.355ZM108.68 112.829H111.578C112.586 112.829 113.454 113.039 114.196 113.445C114.938 113.851 115.512 114.425 115.904 115.153C116.296 115.895 116.506 116.749 116.506 117.729C116.506 118.709 116.296 119.563 115.904 120.305C115.512 121.047 114.938 121.621 114.196 122.027C113.454 122.433 112.586 122.629 111.578 122.629H108.68V112.829ZM111.578 121.509C112.74 121.509 113.65 121.173 114.294 120.487C114.938 119.815 115.26 118.891 115.26 117.729C115.26 116.567 114.938 115.643 114.294 114.971C113.65 114.299 112.754 113.949 111.578 113.949H109.898V121.509H111.578ZM124.555 121.579V122.629H123.925C123.463 122.629 123.141 122.545 122.945 122.349C122.749 122.167 122.637 121.887 122.637 121.523C122.077 122.321 121.279 122.713 120.243 122.713C119.445 122.713 118.801 122.531 118.325 122.153C117.849 121.789 117.611 121.271 117.611 120.627C117.611 119.913 117.849 119.367 118.339 118.975C118.829 118.597 119.543 118.401 120.481 118.401H122.581V117.911C122.581 117.449 122.413 117.085 122.105 116.819C121.797 116.567 121.363 116.427 120.803 116.427C120.299 116.427 119.893 116.539 119.571 116.763C119.249 116.987 119.053 117.267 118.983 117.631H117.835C117.919 116.931 118.227 116.385 118.759 115.993C119.291 115.601 119.991 115.405 120.859 115.405C121.769 115.405 122.469 115.629 122.973 116.077C123.477 116.525 123.729 117.155 123.729 117.981V121.061C123.729 121.411 123.883 121.579 124.205 121.579H124.555ZM122.581 119.367H120.369C119.305 119.367 118.773 119.773 118.773 120.557C118.773 120.921 118.913 121.201 119.193 121.411C119.473 121.635 119.851 121.733 120.327 121.733C121.027 121.733 121.573 121.551 121.979 121.187C122.371 120.823 122.581 120.333 122.581 119.717V119.367ZM125.913 116.539H124.625V115.489H125.913V113.487H127.061V115.489H128.867V116.539H127.061V120.753C127.061 121.061 127.117 121.271 127.229 121.397C127.341 121.523 127.551 121.579 127.845 121.579H129.091V122.629H127.775C127.103 122.629 126.613 122.489 126.333 122.181C126.053 121.887 125.913 121.411 125.913 120.767V116.539ZM136.477 121.579V122.629H135.847C135.385 122.629 135.063 122.545 134.867 122.349C134.671 122.167 134.559 121.887 134.559 121.523C133.999 122.321 133.201 122.713 132.165 122.713C131.367 122.713 130.723 122.531 130.247 122.153C129.771 121.789 129.533 121.271 129.533 120.627C129.533 119.913 129.771 119.367 130.261 118.975C130.751 118.597 131.465 118.401 132.403 118.401H134.503V117.911C134.503 117.449 134.335 117.085 134.027 116.819C133.719 116.567 133.285 116.427 132.725 116.427C132.221 116.427 131.815 116.539 131.493 116.763C131.171 116.987 130.975 117.267 130.905 117.631H129.757C129.841 116.931 130.149 116.385 130.681 115.993C131.213 115.601 131.913 115.405 132.781 115.405C133.691 115.405 134.391 115.629 134.895 116.077C135.399 116.525 135.651 117.155 135.651 117.981V121.061C135.651 121.411 135.805 121.579 136.127 121.579H136.477ZM134.503 119.367H132.291C131.227 119.367 130.695 119.773 130.695 120.557C130.695 120.921 130.835 121.201 131.115 121.411C131.395 121.635 131.773 121.733 132.249 121.733C132.949 121.733 133.495 121.551 133.901 121.187C134.293 120.823 134.503 120.333 134.503 119.717V119.367ZM140.393 122.629L144.131 112.829H145.573L149.297 122.629H147.995L146.959 119.983H142.689L141.653 122.629H140.393ZM143.053 118.877H146.595L144.817 114.159L143.053 118.877ZM148.868 115.489H150.1L152.256 121.327L154.398 115.489H155.602L152.928 122.629H151.542L148.868 115.489ZM162.863 121.579V122.629H162.233C161.771 122.629 161.449 122.545 161.253 122.349C161.057 122.167 160.945 121.887 160.945 121.523C160.385 122.321 159.587 122.713 158.551 122.713C157.753 122.713 157.109 122.531 156.633 122.153C156.157 121.789 155.919 121.271 155.919 120.627C155.919 119.913 156.157 119.367 156.647 118.975C157.137 118.597 157.851 118.401 158.789 118.401H160.889V117.911C160.889 117.449 160.721 117.085 160.413 116.819C160.105 116.567 159.671 116.427 159.111 116.427C158.607 116.427 158.201 116.539 157.879 116.763C157.557 116.987 157.361 117.267 157.291 117.631H156.143C156.227 116.931 156.535 116.385 157.067 115.993C157.599 115.601 158.299 115.405 159.167 115.405C160.077 115.405 160.777 115.629 161.281 116.077C161.785 116.525 162.037 117.155 162.037 117.981V121.061C162.037 121.411 162.191 121.579 162.513 121.579H162.863ZM160.889 119.367H158.677C157.613 119.367 157.081 119.773 157.081 120.557C157.081 120.921 157.221 121.201 157.501 121.411C157.781 121.635 158.159 121.733 158.635 121.733C159.335 121.733 159.881 121.551 160.287 121.187C160.679 120.823 160.889 120.333 160.889 119.717V119.367ZM164.852 112.941C164.992 113.081 165.062 113.263 165.062 113.473C165.062 113.697 164.992 113.865 164.852 114.005C164.712 114.145 164.53 114.215 164.32 114.215C164.096 114.215 163.928 114.145 163.788 114.005C163.648 113.865 163.578 113.697 163.578 113.473C163.578 113.263 163.648 113.081 163.788 112.941C163.928 112.801 164.096 112.731 164.32 112.731C164.53 112.731 164.712 112.801 164.852 112.941ZM163.746 115.489H164.894V122.629H163.746V115.489ZM166.467 112.829H167.615V122.629H166.467V112.829ZM175.865 121.579V122.629H175.235C174.773 122.629 174.451 122.545 174.255 122.349C174.059 122.167 173.947 121.887 173.947 121.523C173.387 122.321 172.589 122.713 171.553 122.713C170.755 122.713 170.111 122.531 169.635 122.153C169.159 121.789 168.921 121.271 168.921 120.627C168.921 119.913 169.159 119.367 169.649 118.975C170.139 118.597 170.853 118.401 171.791 118.401H173.891V117.911C173.891 117.449 173.723 117.085 173.415 116.819C173.107 116.567 172.673 116.427 172.113 116.427C171.609 116.427 171.203 116.539 170.881 116.763C170.559 116.987 170.363 117.267 170.293 117.631H169.145C169.229 116.931 169.537 116.385 170.069 115.993C170.601 115.601 171.301 115.405 172.169 115.405C173.079 115.405 173.779 115.629 174.283 116.077C174.787 116.525 175.039 117.155 175.039 117.981V121.061C175.039 121.411 175.193 121.579 175.515 121.579H175.865ZM173.891 119.367H171.679C170.615 119.367 170.083 119.773 170.083 120.557C170.083 120.921 170.223 121.201 170.503 121.411C170.783 121.635 171.161 121.733 171.637 121.733C172.337 121.733 172.883 121.551 173.289 121.187C173.681 120.823 173.891 120.333 173.891 119.717V119.367ZM182.11 115.839C182.628 116.133 183.034 116.553 183.328 117.099C183.622 117.659 183.776 118.303 183.776 119.059C183.776 119.787 183.622 120.417 183.328 120.963C183.034 121.523 182.628 121.943 182.11 122.251C181.578 122.559 180.99 122.713 180.346 122.713C179.758 122.713 179.268 122.615 178.862 122.405C178.442 122.195 178.12 121.901 177.896 121.537L177.742 122.629H176.748V112.829H177.896V116.637C178.484 115.825 179.31 115.405 180.346 115.405C181.004 115.405 181.592 115.559 182.11 115.839ZM181.942 120.963C182.376 120.473 182.6 119.843 182.6 119.059C182.6 118.289 182.376 117.659 181.942 117.169C181.508 116.679 180.934 116.427 180.234 116.427C179.772 116.427 179.366 116.539 179.002 116.763C178.638 116.987 178.372 117.295 178.176 117.687C177.98 118.079 177.882 118.527 177.882 119.031C177.882 119.549 177.98 120.011 178.176 120.417C178.372 120.823 178.638 121.131 179.002 121.355C179.366 121.579 179.772 121.691 180.234 121.691C180.934 121.691 181.508 121.453 181.942 120.963ZM185.088 112.829H186.236V122.629H185.088V112.829ZM187.976 117.141C188.256 116.595 188.662 116.175 189.18 115.867C189.684 115.559 190.272 115.405 190.944 115.405C191.588 115.405 192.176 115.545 192.68 115.811C193.184 116.091 193.576 116.483 193.87 116.987C194.15 117.505 194.304 118.107 194.332 118.793C194.332 118.905 194.318 119.059 194.304 119.283H188.76V119.381C188.774 120.081 188.984 120.641 189.404 121.061C189.81 121.481 190.342 121.691 191.014 121.691C191.518 121.691 191.952 121.565 192.316 121.313C192.68 121.061 192.918 120.697 193.044 120.235H194.206C194.066 120.963 193.716 121.565 193.156 122.027C192.596 122.489 191.91 122.713 191.098 122.713C190.384 122.713 189.768 122.573 189.236 122.265C188.704 121.957 188.284 121.537 187.99 120.977C187.696 120.417 187.556 119.787 187.556 119.059C187.556 118.331 187.696 117.701 187.976 117.141ZM193.142 118.331C193.086 117.729 192.848 117.253 192.456 116.917C192.064 116.581 191.56 116.413 190.958 116.413C190.412 116.413 189.936 116.595 189.53 116.945C189.11 117.309 188.886 117.771 188.83 118.331H193.142ZM198.648 112.815H200.076L202.96 117.687L205.886 112.815H207.258L203.562 119.003V122.629H202.344V119.003L198.648 112.815ZM207.336 117.141C207.616 116.595 208.022 116.175 208.54 115.867C209.044 115.559 209.632 115.405 210.304 115.405C210.948 115.405 211.536 115.545 212.04 115.811C212.544 116.091 212.936 116.483 213.23 116.987C213.51 117.505 213.664 118.107 213.692 118.793C213.692 118.905 213.678 119.059 213.664 119.283H208.12V119.381C208.134 120.081 208.344 120.641 208.764 121.061C209.17 121.481 209.702 121.691 210.374 121.691C210.878 121.691 211.312 121.565 211.676 121.313C212.04 121.061 212.278 120.697 212.404 120.235H213.566C213.426 120.963 213.076 121.565 212.516 122.027C211.956 122.489 211.27 122.713 210.458 122.713C209.744 122.713 209.128 122.573 208.596 122.265C208.064 121.957 207.644 121.537 207.35 120.977C207.056 120.417 206.916 119.787 206.916 119.059C206.916 118.331 207.056 117.701 207.336 117.141ZM212.502 118.331C212.446 117.729 212.208 117.253 211.816 116.917C211.424 116.581 210.92 116.413 210.318 116.413C209.772 116.413 209.296 116.595 208.89 116.945C208.47 117.309 208.246 117.771 208.19 118.331H212.502ZM215.396 116.539H214.108V115.489H215.396V113.487H216.544V115.489H218.35V116.539H216.544V120.753C216.544 121.061 216.6 121.271 216.712 121.397C216.824 121.523 217.034 121.579 217.328 121.579H218.574V122.629H217.258C216.586 122.629 216.096 122.489 215.816 122.181C215.536 121.887 215.396 121.411 215.396 120.767V116.539ZM219.543 121.369C219.683 121.229 219.879 121.145 220.117 121.145C220.341 121.145 220.537 121.229 220.691 121.369C220.831 121.509 220.915 121.705 220.915 121.929C220.915 122.167 220.831 122.363 220.691 122.503C220.537 122.643 220.341 122.713 220.117 122.713C219.879 122.713 219.683 122.643 219.543 122.503C219.389 122.363 219.319 122.167 219.319 121.929C219.319 121.705 219.389 121.509 219.543 121.369ZM73.0791 147.815H74.5071L77.3911 152.687L80.3171 147.815H81.6891L77.9931 154.003V157.629H76.7751V154.003L73.0791 147.815ZM83.0405 157.251C82.5085 156.943 82.0885 156.523 81.7945 155.963C81.4865 155.417 81.3465 154.787 81.3465 154.059C81.3465 153.345 81.4865 152.715 81.7945 152.155C82.0885 151.609 82.5085 151.175 83.0405 150.867C83.5725 150.559 84.1885 150.405 84.8885 150.405C85.5745 150.405 86.1905 150.559 86.7225 150.867C87.2545 151.175 87.6745 151.609 87.9825 152.155C88.2765 152.715 88.4305 153.345 88.4305 154.059C88.4305 154.787 88.2765 155.417 87.9825 155.963C87.6745 156.523 87.2545 156.943 86.7225 157.251C86.1905 157.559 85.5745 157.713 84.8885 157.713C84.1885 157.713 83.5725 157.559 83.0405 157.251ZM86.1205 156.355C86.4845 156.131 86.7645 155.823 86.9605 155.417C87.1565 155.025 87.2545 154.563 87.2545 154.059C87.2545 153.555 87.1565 153.107 86.9605 152.701C86.7645 152.309 86.4845 151.987 86.1205 151.763C85.7565 151.539 85.3505 151.427 84.8885 151.427C84.4125 151.427 84.0065 151.539 83.6425 151.763C83.2785 151.987 83.0125 152.309 82.8165 152.701C82.6205 153.107 82.5225 153.555 82.5225 154.059C82.5225 154.563 82.6205 155.025 82.8165 155.417C83.0125 155.823 83.2785 156.131 83.6425 156.355C84.0065 156.579 84.4125 156.691 84.8885 156.691C85.3505 156.691 85.7565 156.579 86.1205 156.355ZM95.8929 150.489V157.629H94.8989L94.7449 156.677C94.1989 157.377 93.4429 157.713 92.4629 157.713C91.6089 157.713 90.9229 157.461 90.4189 156.929C89.9009 156.411 89.6489 155.585 89.6489 154.465V150.489H90.7969V154.395C90.7969 155.137 90.9509 155.697 91.2729 156.089C91.5949 156.481 92.0569 156.663 92.6589 156.663C93.3029 156.663 93.8209 156.439 94.1849 155.963C94.5489 155.501 94.7449 154.871 94.7449 154.059V150.489H95.8929ZM101.084 150.489V151.609H100.51C99.8238 151.609 99.3338 151.847 99.0398 152.295C98.7458 152.757 98.6058 153.317 98.6058 153.989V157.629H97.4578V150.489H98.4518L98.6058 151.567C98.8018 151.245 99.0678 150.979 99.4038 150.783C99.7258 150.587 100.174 150.489 100.762 150.489H101.084ZM112.574 147.829V157.629H111.58L111.426 156.481C110.824 157.307 110.012 157.713 108.976 157.713C108.304 157.713 107.716 157.573 107.198 157.279C106.68 156.999 106.274 156.579 105.98 156.019C105.686 155.473 105.546 154.815 105.546 154.059C105.546 153.345 105.686 152.715 105.98 152.155C106.274 151.609 106.68 151.175 107.212 150.867C107.73 150.559 108.318 150.405 108.976 150.405C109.55 150.405 110.04 150.517 110.46 150.727C110.866 150.937 111.188 151.217 111.426 151.581V147.829H112.574ZM110.306 156.369C110.67 156.145 110.95 155.837 111.146 155.445C111.342 155.053 111.44 154.591 111.44 154.087C111.44 153.583 111.342 153.121 111.146 152.715C110.95 152.309 110.67 151.987 110.306 151.763C109.942 151.539 109.536 151.427 109.088 151.427C108.374 151.427 107.8 151.679 107.366 152.169C106.932 152.659 106.722 153.289 106.722 154.059C106.722 154.843 106.932 155.473 107.366 155.963C107.8 156.453 108.374 156.691 109.088 156.691C109.536 156.691 109.942 156.593 110.306 156.369ZM120.816 156.579V157.629H120.186C119.724 157.629 119.402 157.545 119.206 157.349C119.01 157.167 118.898 156.887 118.898 156.523C118.338 157.321 117.54 157.713 116.504 157.713C115.706 157.713 115.062 157.531 114.586 157.153C114.11 156.789 113.872 156.271 113.872 155.627C113.872 154.913 114.11 154.367 114.6 153.975C115.09 153.597 115.804 153.401 116.742 153.401H118.842V152.911C118.842 152.449 118.674 152.085 118.366 151.819C118.058 151.567 117.624 151.427 117.064 151.427C116.56 151.427 116.154 151.539 115.832 151.763C115.51 151.987 115.314 152.267 115.244 152.631H114.096C114.18 151.931 114.488 151.385 115.02 150.993C115.552 150.601 116.252 150.405 117.12 150.405C118.03 150.405 118.73 150.629 119.234 151.077C119.738 151.525 119.99 152.155 119.99 152.981V156.061C119.99 156.411 120.144 156.579 120.466 156.579H120.816ZM118.842 154.367H116.63C115.566 154.367 115.034 154.773 115.034 155.557C115.034 155.921 115.174 156.201 115.454 156.411C115.734 156.635 116.112 156.733 116.588 156.733C117.288 156.733 117.834 156.551 118.24 156.187C118.632 155.823 118.842 155.333 118.842 154.717V154.367ZM122.174 151.539H120.886V150.489H122.174V148.487H123.322V150.489H125.128V151.539H123.322V155.753C123.322 156.061 123.378 156.271 123.49 156.397C123.602 156.523 123.812 156.579 124.106 156.579H125.352V157.629H124.036C123.364 157.629 122.874 157.489 122.594 157.181C122.314 156.887 122.174 156.411 122.174 155.767V151.539ZM132.737 156.579V157.629H132.107C131.645 157.629 131.323 157.545 131.127 157.349C130.931 157.167 130.819 156.887 130.819 156.523C130.259 157.321 129.461 157.713 128.425 157.713C127.627 157.713 126.983 157.531 126.507 157.153C126.031 156.789 125.793 156.271 125.793 155.627C125.793 154.913 126.031 154.367 126.521 153.975C127.011 153.597 127.725 153.401 128.663 153.401H130.763V152.911C130.763 152.449 130.595 152.085 130.287 151.819C129.979 151.567 129.545 151.427 128.985 151.427C128.481 151.427 128.075 151.539 127.753 151.763C127.431 151.987 127.235 152.267 127.165 152.631H126.017C126.101 151.931 126.409 151.385 126.941 150.993C127.473 150.601 128.173 150.405 129.041 150.405C129.951 150.405 130.651 150.629 131.155 151.077C131.659 151.525 131.911 152.155 131.911 152.981V156.061C131.911 156.411 132.065 156.579 132.387 156.579H132.737ZM130.763 154.367H128.551C127.487 154.367 126.955 154.773 126.955 155.557C126.955 155.921 127.095 156.201 127.375 156.411C127.655 156.635 128.033 156.733 128.509 156.733C129.209 156.733 129.755 156.551 130.161 156.187C130.553 155.823 130.763 155.333 130.763 154.717V154.367ZM136.612 150.489H137.816L139.594 156.299L141.47 150.489H142.534L144.312 156.299L146.174 150.489H147.336L144.956 157.629H143.696L141.974 152.323L140.182 157.629L138.922 157.643L136.612 150.489ZM149.341 147.941C149.481 148.081 149.551 148.263 149.551 148.473C149.551 148.697 149.481 148.865 149.341 149.005C149.201 149.145 149.019 149.215 148.809 149.215C148.585 149.215 148.417 149.145 148.277 149.005C148.137 148.865 148.067 148.697 148.067 148.473C148.067 148.263 148.137 148.081 148.277 147.941C148.417 147.801 148.585 147.731 148.809 147.731C149.019 147.731 149.201 147.801 149.341 147.941ZM148.235 150.489H149.383V157.629H148.235V150.489ZM150.956 147.829H152.104V157.629H150.956V147.829ZM153.677 147.829H154.825V157.629H153.677V147.829ZM166.739 156.579V157.629H166.109C165.647 157.629 165.325 157.545 165.129 157.349C164.933 157.167 164.821 156.887 164.821 156.523C164.261 157.321 163.463 157.713 162.427 157.713C161.629 157.713 160.985 157.531 160.509 157.153C160.033 156.789 159.795 156.271 159.795 155.627C159.795 154.913 160.033 154.367 160.523 153.975C161.013 153.597 161.727 153.401 162.665 153.401H164.765V152.911C164.765 152.449 164.597 152.085 164.289 151.819C163.981 151.567 163.547 151.427 162.987 151.427C162.483 151.427 162.077 151.539 161.755 151.763C161.433 151.987 161.237 152.267 161.167 152.631H160.019C160.103 151.931 160.411 151.385 160.943 150.993C161.475 150.601 162.175 150.405 163.043 150.405C163.953 150.405 164.653 150.629 165.157 151.077C165.661 151.525 165.913 152.155 165.913 152.981V156.061C165.913 156.411 166.067 156.579 166.389 156.579H166.739ZM164.765 154.367H162.553C161.489 154.367 160.957 154.773 160.957 155.557C160.957 155.921 161.097 156.201 161.377 156.411C161.657 156.635 162.035 156.733 162.511 156.733C163.211 156.733 163.757 156.551 164.163 156.187C164.555 155.823 164.765 155.333 164.765 154.717V154.367ZM172.984 150.839C173.502 151.133 173.908 151.553 174.202 152.099C174.496 152.659 174.65 153.303 174.65 154.059C174.65 154.787 174.496 155.417 174.202 155.963C173.908 156.523 173.502 156.943 172.984 157.251C172.452 157.559 171.864 157.713 171.22 157.713C170.632 157.713 170.142 157.615 169.736 157.405C169.316 157.195 168.994 156.901 168.77 156.537V160.429H167.622V150.489H168.616L168.77 151.637C169.358 150.825 170.184 150.405 171.22 150.405C171.878 150.405 172.466 150.559 172.984 150.839ZM172.816 155.963C173.25 155.473 173.474 154.843 173.474 154.059C173.474 153.289 173.25 152.659 172.816 152.169C172.382 151.679 171.808 151.427 171.108 151.427C170.646 151.427 170.24 151.539 169.876 151.763C169.512 151.987 169.246 152.295 169.05 152.687C168.854 153.079 168.756 153.527 168.756 154.031C168.756 154.549 168.854 155.011 169.05 155.417C169.246 155.823 169.512 156.131 169.876 156.355C170.24 156.579 170.646 156.691 171.108 156.691C171.808 156.691 172.382 156.453 172.816 155.963ZM181.324 150.839C181.842 151.133 182.248 151.553 182.542 152.099C182.836 152.659 182.99 153.303 182.99 154.059C182.99 154.787 182.836 155.417 182.542 155.963C182.248 156.523 181.842 156.943 181.324 157.251C180.792 157.559 180.204 157.713 179.56 157.713C178.972 157.713 178.482 157.615 178.076 157.405C177.656 157.195 177.334 156.901 177.11 156.537V160.429H175.962V150.489H176.956L177.11 151.637C177.698 150.825 178.524 150.405 179.56 150.405C180.218 150.405 180.806 150.559 181.324 150.839ZM181.156 155.963C181.59 155.473 181.814 154.843 181.814 154.059C181.814 153.289 181.59 152.659 181.156 152.169C180.722 151.679 180.148 151.427 179.448 151.427C178.986 151.427 178.58 151.539 178.216 151.763C177.852 151.987 177.586 152.295 177.39 152.687C177.194 153.079 177.096 153.527 177.096 154.031C177.096 154.549 177.194 155.011 177.39 155.417C177.586 155.823 177.852 156.131 178.216 156.355C178.58 156.579 178.986 156.691 179.448 156.691C180.148 156.691 180.722 156.453 181.156 155.963ZM184.47 152.141C184.75 151.595 185.156 151.175 185.674 150.867C186.178 150.559 186.766 150.405 187.438 150.405C188.082 150.405 188.67 150.545 189.174 150.811C189.678 151.091 190.07 151.483 190.364 151.987C190.644 152.505 190.798 153.107 190.826 153.793C190.826 153.905 190.812 154.059 190.798 154.283H185.254V154.381C185.268 155.081 185.478 155.641 185.898 156.061C186.304 156.481 186.836 156.691 187.508 156.691C188.012 156.691 188.446 156.565 188.81 156.313C189.174 156.061 189.412 155.697 189.538 155.235H190.7C190.56 155.963 190.21 156.565 189.65 157.027C189.09 157.489 188.404 157.713 187.592 157.713C186.878 157.713 186.262 157.573 185.73 157.265C185.198 156.957 184.778 156.537 184.484 155.977C184.19 155.417 184.05 154.787 184.05 154.059C184.05 153.331 184.19 152.701 184.47 152.141ZM189.636 153.331C189.58 152.729 189.342 152.253 188.95 151.917C188.558 151.581 188.054 151.413 187.452 151.413C186.906 151.413 186.43 151.595 186.024 151.945C185.604 152.309 185.38 152.771 185.324 153.331H189.636ZM198.814 156.579V157.629H198.184C197.722 157.629 197.4 157.545 197.204 157.349C197.008 157.167 196.896 156.887 196.896 156.523C196.336 157.321 195.538 157.713 194.502 157.713C193.704 157.713 193.06 157.531 192.584 157.153C192.108 156.789 191.87 156.271 191.87 155.627C191.87 154.913 192.108 154.367 192.598 153.975C193.088 153.597 193.802 153.401 194.74 153.401H196.84V152.911C196.84 152.449 196.672 152.085 196.364 151.819C196.056 151.567 195.622 151.427 195.062 151.427C194.558 151.427 194.152 151.539 193.83 151.763C193.508 151.987 193.312 152.267 193.242 152.631H192.094C192.178 151.931 192.486 151.385 193.018 150.993C193.55 150.601 194.25 150.405 195.118 150.405C196.028 150.405 196.728 150.629 197.232 151.077C197.736 151.525 197.988 152.155 197.988 152.981V156.061C197.988 156.411 198.142 156.579 198.464 156.579H198.814ZM196.84 154.367H194.628C193.564 154.367 193.032 154.773 193.032 155.557C193.032 155.921 193.172 156.201 193.452 156.411C193.732 156.635 194.11 156.733 194.586 156.733C195.286 156.733 195.832 156.551 196.238 156.187C196.63 155.823 196.84 155.333 196.84 154.717V154.367ZM203.322 150.489V151.609H202.748C202.062 151.609 201.572 151.847 201.278 152.295C200.984 152.757 200.844 153.317 200.844 153.989V157.629H199.696V150.489H200.69L200.844 151.567C201.04 151.245 201.306 150.979 201.642 150.783C201.964 150.587 202.412 150.489 203 150.489H203.322ZM213.636 151.189C214.168 151.721 214.434 152.533 214.434 153.653V157.629H213.286V153.723C213.286 152.995 213.118 152.435 212.782 152.043C212.446 151.651 211.956 151.455 211.34 151.455C210.668 151.455 210.15 151.693 209.758 152.155C209.366 152.631 209.184 153.261 209.184 154.059V157.629H208.036V147.829H209.184V151.665C209.408 151.301 209.716 150.993 210.108 150.755C210.5 150.531 210.976 150.405 211.536 150.405C212.404 150.405 213.104 150.671 213.636 151.189ZM216.065 152.141C216.345 151.595 216.751 151.175 217.269 150.867C217.773 150.559 218.361 150.405 219.033 150.405C219.677 150.405 220.265 150.545 220.769 150.811C221.273 151.091 221.665 151.483 221.959 151.987C222.239 152.505 222.393 153.107 222.421 153.793C222.421 153.905 222.407 154.059 222.393 154.283H216.849V154.381C216.863 155.081 217.073 155.641 217.493 156.061C217.899 156.481 218.431 156.691 219.103 156.691C219.607 156.691 220.041 156.565 220.405 156.313C220.769 156.061 221.007 155.697 221.133 155.235H222.295C222.155 155.963 221.805 156.565 221.245 157.027C220.685 157.489 219.999 157.713 219.187 157.713C218.473 157.713 217.857 157.573 217.325 157.265C216.793 156.957 216.373 156.537 216.079 155.977C215.785 155.417 215.645 154.787 215.645 154.059C215.645 153.331 215.785 152.701 216.065 152.141ZM221.231 153.331C221.175 152.729 220.937 152.253 220.545 151.917C220.153 151.581 219.649 151.413 219.047 151.413C218.501 151.413 218.025 151.595 217.619 151.945C217.199 152.309 216.975 152.771 216.919 153.331H221.231ZM227.357 150.489V151.609H226.783C226.097 151.609 225.607 151.847 225.313 152.295C225.019 152.757 224.879 153.317 224.879 153.989V157.629H223.731V150.489H224.725L224.879 151.567C225.075 151.245 225.341 150.979 225.677 150.783C225.999 150.587 226.447 150.489 227.035 150.489H227.357ZM228.165 152.141C228.445 151.595 228.851 151.175 229.369 150.867C229.873 150.559 230.461 150.405 231.133 150.405C231.777 150.405 232.365 150.545 232.869 150.811C233.373 151.091 233.765 151.483 234.059 151.987C234.339 152.505 234.493 153.107 234.521 153.793C234.521 153.905 234.507 154.059 234.493 154.283H228.949V154.381C228.963 155.081 229.173 155.641 229.593 156.061C229.999 156.481 230.531 156.691 231.203 156.691C231.707 156.691 232.141 156.565 232.505 156.313C232.869 156.061 233.107 155.697 233.233 155.235H234.395C234.255 155.963 233.905 156.565 233.345 157.027C232.785 157.489 232.099 157.713 231.287 157.713C230.573 157.713 229.957 157.573 229.425 157.265C228.893 156.957 228.473 156.537 228.179 155.977C227.885 155.417 227.745 154.787 227.745 154.059C227.745 153.331 227.885 152.701 228.165 152.141ZM233.331 153.331C233.275 152.729 233.037 152.253 232.645 151.917C232.253 151.581 231.749 151.413 231.147 151.413C230.601 151.413 230.125 151.595 229.719 151.945C229.299 152.309 229.075 152.771 229.019 153.331H233.331ZM90.6283 174.251C90.0963 173.943 89.6763 173.523 89.3823 172.963C89.0743 172.417 88.9343 171.787 88.9343 171.059C88.9343 170.345 89.0743 169.715 89.3823 169.155C89.6763 168.609 90.0963 168.175 90.6283 167.867C91.1603 167.559 91.7763 167.405 92.4763 167.405C93.1623 167.405 93.7783 167.559 94.3103 167.867C94.8423 168.175 95.2623 168.609 95.5703 169.155C95.8643 169.715 96.0183 170.345 96.0183 171.059C96.0183 171.787 95.8643 172.417 95.5703 172.963C95.2623 173.523 94.8423 173.943 94.3103 174.251C93.7783 174.559 93.1623 174.713 92.4763 174.713C91.7763 174.713 91.1603 174.559 90.6283 174.251ZM93.7083 173.355C94.0723 173.131 94.3523 172.823 94.5483 172.417C94.7443 172.025 94.8423 171.563 94.8423 171.059C94.8423 170.555 94.7443 170.107 94.5483 169.701C94.3523 169.309 94.0723 168.987 93.7083 168.763C93.3443 168.539 92.9383 168.427 92.4763 168.427C92.0003 168.427 91.5943 168.539 91.2303 168.763C90.8663 168.987 90.6003 169.309 90.4043 169.701C90.2083 170.107 90.1103 170.555 90.1103 171.059C90.1103 171.563 90.2083 172.025 90.4043 172.417C90.6003 172.823 90.8663 173.131 91.2303 173.355C91.5943 173.579 92.0003 173.691 92.4763 173.691C92.9383 173.691 93.3443 173.579 93.7083 173.355ZM102.921 168.189C103.453 168.721 103.719 169.533 103.719 170.653V174.629H102.571V170.723C102.571 169.995 102.403 169.435 102.067 169.043C101.731 168.651 101.255 168.455 100.639 168.455C99.9668 168.455 99.4348 168.693 99.0568 169.155C98.6648 169.631 98.4828 170.261 98.4828 171.059V174.629H97.3348V167.489H98.3288L98.4828 168.455C99.0148 167.755 99.7988 167.405 100.835 167.405C101.703 167.405 102.389 167.671 102.921 168.189ZM110.502 174.041C109.942 174.489 109.242 174.713 108.402 174.713C107.702 174.713 107.1 174.559 106.582 174.251C106.05 173.943 105.644 173.523 105.364 172.963C105.07 172.403 104.93 171.773 104.93 171.045C104.93 170.331 105.07 169.701 105.364 169.141C105.658 168.595 106.078 168.175 106.61 167.867C107.142 167.559 107.744 167.405 108.444 167.405C109.284 167.405 109.97 167.629 110.516 168.077C111.062 168.525 111.412 169.141 111.552 169.925H110.39C110.278 169.477 110.04 169.113 109.69 168.833C109.326 168.567 108.906 168.427 108.402 168.427C107.716 168.427 107.156 168.679 106.736 169.155C106.316 169.645 106.106 170.275 106.106 171.045C106.106 171.829 106.316 172.473 106.736 172.963C107.156 173.453 107.716 173.691 108.402 173.691C108.92 173.691 109.354 173.565 109.718 173.285C110.068 173.019 110.292 172.641 110.404 172.165H111.552C111.398 172.963 111.048 173.593 110.502 174.041ZM112.897 169.141C113.177 168.595 113.583 168.175 114.101 167.867C114.605 167.559 115.193 167.405 115.865 167.405C116.509 167.405 117.097 167.545 117.601 167.811C118.105 168.091 118.497 168.483 118.791 168.987C119.071 169.505 119.225 170.107 119.253 170.793C119.253 170.905 119.239 171.059 119.225 171.283H113.681V171.381C113.695 172.081 113.905 172.641 114.325 173.061C114.731 173.481 115.263 173.691 115.935 173.691C116.439 173.691 116.873 173.565 117.237 173.313C117.601 173.061 117.839 172.697 117.965 172.235H119.127C118.987 172.963 118.637 173.565 118.077 174.027C117.517 174.489 116.831 174.713 116.019 174.713C115.305 174.713 114.689 174.573 114.157 174.265C113.625 173.957 113.205 173.537 112.911 172.977C112.617 172.417 112.477 171.787 112.477 171.059C112.477 170.331 112.617 169.701 112.897 169.141ZM118.063 170.331C118.007 169.729 117.769 169.253 117.377 168.917C116.985 168.581 116.481 168.413 115.879 168.413C115.333 168.413 114.857 168.595 114.451 168.945C114.031 169.309 113.807 169.771 113.751 170.331H118.063ZM124.731 167.489L126.929 173.313L129.057 167.489H130.275L126.985 175.833C126.817 176.267 126.663 176.589 126.537 176.799C126.397 177.023 126.243 177.177 126.047 177.275C125.851 177.387 125.585 177.429 125.263 177.429H123.891V176.379H124.913C125.137 176.379 125.305 176.365 125.417 176.309C125.529 176.267 125.613 176.197 125.683 176.085C125.753 175.973 125.837 175.791 125.949 175.539L126.313 174.685L123.513 167.489H124.731ZM132.3 174.251C131.768 173.943 131.348 173.523 131.054 172.963C130.746 172.417 130.606 171.787 130.606 171.059C130.606 170.345 130.746 169.715 131.054 169.155C131.348 168.609 131.768 168.175 132.3 167.867C132.832 167.559 133.448 167.405 134.148 167.405C134.834 167.405 135.45 167.559 135.982 167.867C136.514 168.175 136.934 168.609 137.242 169.155C137.536 169.715 137.69 170.345 137.69 171.059C137.69 171.787 137.536 172.417 137.242 172.963C136.934 173.523 136.514 173.943 135.982 174.251C135.45 174.559 134.834 174.713 134.148 174.713C133.448 174.713 132.832 174.559 132.3 174.251ZM135.38 173.355C135.744 173.131 136.024 172.823 136.22 172.417C136.416 172.025 136.514 171.563 136.514 171.059C136.514 170.555 136.416 170.107 136.22 169.701C136.024 169.309 135.744 168.987 135.38 168.763C135.016 168.539 134.61 168.427 134.148 168.427C133.672 168.427 133.266 168.539 132.902 168.763C132.538 168.987 132.272 169.309 132.076 169.701C131.88 170.107 131.782 170.555 131.782 171.059C131.782 171.563 131.88 172.025 132.076 172.417C132.272 172.823 132.538 173.131 132.902 173.355C133.266 173.579 133.672 173.691 134.148 173.691C134.61 173.691 135.016 173.579 135.38 173.355ZM145.153 167.489V174.629H144.159L144.005 173.677C143.459 174.377 142.703 174.713 141.723 174.713C140.869 174.713 140.183 174.461 139.679 173.929C139.161 173.411 138.909 172.585 138.909 171.465V167.489H140.057V171.395C140.057 172.137 140.211 172.697 140.533 173.089C140.855 173.481 141.317 173.663 141.919 173.663C142.563 173.663 143.081 173.439 143.445 172.963C143.809 172.501 144.005 171.871 144.005 171.059V167.489H145.153ZM155.702 174.041C155.142 174.489 154.442 174.713 153.602 174.713C152.902 174.713 152.3 174.559 151.782 174.251C151.25 173.943 150.844 173.523 150.564 172.963C150.27 172.403 150.13 171.773 150.13 171.045C150.13 170.331 150.27 169.701 150.564 169.141C150.858 168.595 151.278 168.175 151.81 167.867C152.342 167.559 152.944 167.405 153.644 167.405C154.484 167.405 155.17 167.629 155.716 168.077C156.262 168.525 156.612 169.141 156.752 169.925H155.59C155.478 169.477 155.24 169.113 154.89 168.833C154.526 168.567 154.106 168.427 153.602 168.427C152.916 168.427 152.356 168.679 151.936 169.155C151.516 169.645 151.306 170.275 151.306 171.045C151.306 171.829 151.516 172.473 151.936 172.963C152.356 173.453 152.916 173.691 153.602 173.691C154.12 173.691 154.554 173.565 154.918 173.285C155.268 173.019 155.492 172.641 155.604 172.165H156.752C156.598 172.963 156.248 173.593 155.702 174.041ZM159.371 174.251C158.839 173.943 158.419 173.523 158.125 172.963C157.817 172.417 157.677 171.787 157.677 171.059C157.677 170.345 157.817 169.715 158.125 169.155C158.419 168.609 158.839 168.175 159.371 167.867C159.903 167.559 160.519 167.405 161.219 167.405C161.905 167.405 162.521 167.559 163.053 167.867C163.585 168.175 164.005 168.609 164.313 169.155C164.607 169.715 164.761 170.345 164.761 171.059C164.761 171.787 164.607 172.417 164.313 172.963C164.005 173.523 163.585 173.943 163.053 174.251C162.521 174.559 161.905 174.713 161.219 174.713C160.519 174.713 159.903 174.559 159.371 174.251ZM162.451 173.355C162.815 173.131 163.095 172.823 163.291 172.417C163.487 172.025 163.585 171.563 163.585 171.059C163.585 170.555 163.487 170.107 163.291 169.701C163.095 169.309 162.815 168.987 162.451 168.763C162.087 168.539 161.681 168.427 161.219 168.427C160.743 168.427 160.337 168.539 159.973 168.763C159.609 168.987 159.343 169.309 159.147 169.701C158.951 170.107 158.853 170.555 158.853 171.059C158.853 171.563 158.951 172.025 159.147 172.417C159.343 172.823 159.609 173.131 159.973 173.355C160.337 173.579 160.743 173.691 161.219 173.691C161.681 173.691 162.087 173.579 162.451 173.355ZM175.989 168.161C176.493 168.665 176.745 169.449 176.745 170.513V174.629H175.597V170.583C175.597 169.897 175.443 169.365 175.149 169.001C174.855 168.637 174.435 168.455 173.903 168.455C173.301 168.455 172.825 168.665 172.489 169.085C172.153 169.505 171.985 170.079 171.985 170.807V174.629H170.837V170.583C170.837 169.897 170.683 169.365 170.389 169.001C170.081 168.637 169.661 168.455 169.115 168.455C168.527 168.455 168.065 168.679 167.729 169.127C167.393 169.575 167.225 170.149 167.225 170.863V174.629H166.077V167.489H167.071L167.225 168.469C167.729 167.769 168.429 167.405 169.311 167.405C169.815 167.405 170.277 167.531 170.669 167.755C171.061 167.979 171.369 168.315 171.565 168.763C172.069 167.867 172.895 167.405 174.043 167.405C174.841 167.405 175.485 167.657 175.989 168.161ZM183.58 167.839C184.098 168.133 184.504 168.553 184.798 169.099C185.092 169.659 185.246 170.303 185.246 171.059C185.246 171.787 185.092 172.417 184.798 172.963C184.504 173.523 184.098 173.943 183.58 174.251C183.048 174.559 182.46 174.713 181.816 174.713C181.228 174.713 180.738 174.615 180.332 174.405C179.912 174.195 179.59 173.901 179.366 173.537V177.429H178.218V167.489H179.212L179.366 168.637C179.954 167.825 180.78 167.405 181.816 167.405C182.474 167.405 183.062 167.559 183.58 167.839ZM183.412 172.963C183.846 172.473 184.07 171.843 184.07 171.059C184.07 170.289 183.846 169.659 183.412 169.169C182.978 168.679 182.404 168.427 181.704 168.427C181.242 168.427 180.836 168.539 180.472 168.763C180.108 168.987 179.842 169.295 179.646 169.687C179.45 170.079 179.352 170.527 179.352 171.031C179.352 171.549 179.45 172.011 179.646 172.417C179.842 172.823 180.108 173.131 180.472 173.355C180.836 173.579 181.242 173.691 181.704 173.691C182.404 173.691 182.978 173.453 183.412 172.963ZM186.557 164.829H187.705V174.629H186.557V164.829ZM189.446 169.141C189.726 168.595 190.132 168.175 190.65 167.867C191.154 167.559 191.742 167.405 192.414 167.405C193.058 167.405 193.646 167.545 194.15 167.811C194.654 168.091 195.046 168.483 195.34 168.987C195.62 169.505 195.774 170.107 195.802 170.793C195.802 170.905 195.788 171.059 195.774 171.283H190.23V171.381C190.244 172.081 190.454 172.641 190.874 173.061C191.28 173.481 191.812 173.691 192.484 173.691C192.988 173.691 193.422 173.565 193.786 173.313C194.15 173.061 194.388 172.697 194.514 172.235H195.676C195.536 172.963 195.186 173.565 194.626 174.027C194.066 174.489 193.38 174.713 192.568 174.713C191.854 174.713 191.238 174.573 190.706 174.265C190.174 173.957 189.754 173.537 189.46 172.977C189.166 172.417 189.026 171.787 189.026 171.059C189.026 170.331 189.166 169.701 189.446 169.141ZM194.612 170.331C194.556 169.729 194.318 169.253 193.926 168.917C193.534 168.581 193.03 168.413 192.428 168.413C191.882 168.413 191.406 168.595 191 168.945C190.58 169.309 190.356 169.771 190.3 170.331H194.612ZM197.506 168.539H196.218V167.489H197.506V165.487H198.654V167.489H200.46V168.539H198.654V172.753C198.654 173.061 198.71 173.271 198.822 173.397C198.934 173.523 199.144 173.579 199.438 173.579H200.684V174.629H199.368C198.696 174.629 198.206 174.489 197.926 174.181C197.646 173.887 197.506 173.411 197.506 172.767V168.539ZM201.491 169.141C201.771 168.595 202.177 168.175 202.695 167.867C203.199 167.559 203.787 167.405 204.459 167.405C205.103 167.405 205.691 167.545 206.195 167.811C206.699 168.091 207.091 168.483 207.385 168.987C207.665 169.505 207.819 170.107 207.847 170.793C207.847 170.905 207.833 171.059 207.819 171.283H202.275V171.381C202.289 172.081 202.499 172.641 202.919 173.061C203.325 173.481 203.857 173.691 204.529 173.691C205.033 173.691 205.467 173.565 205.831 173.313C206.195 173.061 206.433 172.697 206.559 172.235H207.721C207.581 172.963 207.231 173.565 206.671 174.027C206.111 174.489 205.425 174.713 204.613 174.713C203.899 174.713 203.283 174.573 202.751 174.265C202.219 173.957 201.799 173.537 201.505 172.977C201.211 172.417 201.071 171.787 201.071 171.059C201.071 170.331 201.211 169.701 201.491 169.141ZM206.657 170.331C206.601 169.729 206.363 169.253 205.971 168.917C205.579 168.581 205.075 168.413 204.473 168.413C203.927 168.413 203.451 168.595 203.045 168.945C202.625 169.309 202.401 169.771 202.345 170.331H206.657ZM219.499 173.579V174.629H218.869C218.407 174.629 218.085 174.545 217.889 174.349C217.693 174.167 217.581 173.887 217.581 173.523C217.021 174.321 216.223 174.713 215.187 174.713C214.389 174.713 213.745 174.531 213.269 174.153C212.793 173.789 212.555 173.271 212.555 172.627C212.555 171.913 212.793 171.367 213.283 170.975C213.773 170.597 214.487 170.401 215.425 170.401H217.525V169.911C217.525 169.449 217.357 169.085 217.049 168.819C216.741 168.567 216.307 168.427 215.747 168.427C215.243 168.427 214.837 168.539 214.515 168.763C214.193 168.987 213.997 169.267 213.927 169.631H212.779C212.863 168.931 213.171 168.385 213.703 167.993C214.235 167.601 214.935 167.405 215.803 167.405C216.713 167.405 217.413 167.629 217.917 168.077C218.421 168.525 218.673 169.155 218.673 169.981V173.061C218.673 173.411 218.827 173.579 219.149 173.579H219.499ZM217.525 171.367H215.313C214.249 171.367 213.717 171.773 213.717 172.557C213.717 172.921 213.857 173.201 214.137 173.411C214.417 173.635 214.795 173.733 215.271 173.733C215.971 173.733 216.517 173.551 216.923 173.187C217.315 172.823 217.525 172.333 217.525 171.717V171.367ZM118.995 185.539H117.707V184.489H118.995V182.487H120.143V184.489H121.949V185.539H120.143V189.753C120.143 190.061 120.199 190.271 120.311 190.397C120.423 190.523 120.633 190.579 120.927 190.579H122.173V191.629H120.857C120.185 191.629 119.695 191.489 119.415 191.181C119.135 190.887 118.995 190.411 118.995 189.767V185.539ZM126.616 184.489V185.609H126.042C125.356 185.609 124.866 185.847 124.572 186.295C124.278 186.757 124.138 187.317 124.138 187.989V191.629H122.99V184.489H123.984L124.138 185.567C124.334 185.245 124.6 184.979 124.936 184.783C125.258 184.587 125.706 184.489 126.294 184.489H126.616ZM134.002 190.579V191.629H133.372C132.91 191.629 132.588 191.545 132.392 191.349C132.196 191.167 132.084 190.887 132.084 190.523C131.524 191.321 130.726 191.713 129.69 191.713C128.892 191.713 128.248 191.531 127.772 191.153C127.296 190.789 127.058 190.271 127.058 189.627C127.058 188.913 127.296 188.367 127.786 187.975C128.276 187.597 128.99 187.401 129.928 187.401H132.028V186.911C132.028 186.449 131.86 186.085 131.552 185.819C131.244 185.567 130.81 185.427 130.25 185.427C129.746 185.427 129.34 185.539 129.018 185.763C128.696 185.987 128.5 186.267 128.43 186.631H127.282C127.366 185.931 127.674 185.385 128.206 184.993C128.738 184.601 129.438 184.405 130.306 184.405C131.216 184.405 131.916 184.629 132.42 185.077C132.924 185.525 133.176 186.155 133.176 186.981V190.061C133.176 190.411 133.33 190.579 133.652 190.579H134.002ZM132.028 188.367H129.816C128.752 188.367 128.22 188.773 128.22 189.557C128.22 189.921 128.36 190.201 128.64 190.411C128.92 190.635 129.298 190.733 129.774 190.733C130.474 190.733 131.02 190.551 131.426 190.187C131.818 189.823 132.028 189.333 132.028 188.717V188.367ZM140.471 185.189C141.003 185.721 141.269 186.533 141.269 187.653V191.629H140.121V187.723C140.121 186.995 139.953 186.435 139.617 186.043C139.281 185.651 138.805 185.455 138.189 185.455C137.517 185.455 136.985 185.693 136.607 186.155C136.215 186.631 136.033 187.261 136.033 188.059V191.629H134.885V184.489H135.879L136.033 185.455C136.565 184.755 137.349 184.405 138.385 184.405C139.253 184.405 139.939 184.671 140.471 185.189ZM143.628 189.277C143.642 189.711 143.824 190.061 144.188 190.327C144.552 190.607 145.014 190.733 145.588 190.733C146.092 190.733 146.498 190.635 146.806 190.439C147.114 190.243 147.282 189.977 147.282 189.641C147.282 189.361 147.198 189.151 147.058 188.997C146.904 188.857 146.708 188.745 146.47 188.689C146.232 188.633 145.896 188.577 145.462 188.521C144.846 188.451 144.342 188.353 143.95 188.227C143.558 188.115 143.236 187.919 142.998 187.653C142.746 187.387 142.634 187.023 142.634 186.547C142.634 186.127 142.746 185.763 142.984 185.427C143.222 185.105 143.544 184.853 143.964 184.671C144.37 184.489 144.832 184.391 145.35 184.391C146.19 184.391 146.862 184.587 147.394 184.979C147.926 185.371 148.22 185.931 148.276 186.659H147.128C147.072 186.295 146.89 185.987 146.582 185.735C146.26 185.497 145.868 185.371 145.392 185.371C144.902 185.371 144.51 185.483 144.216 185.679C143.908 185.875 143.768 186.141 143.768 186.463C143.768 186.715 143.838 186.897 143.978 187.023C144.118 187.163 144.286 187.247 144.51 187.289C144.734 187.345 145.07 187.387 145.518 187.443C146.134 187.527 146.652 187.625 147.058 187.751C147.464 187.891 147.786 188.101 148.038 188.381C148.29 188.675 148.416 189.067 148.416 189.557C148.416 189.991 148.29 190.369 148.038 190.691C147.786 191.027 147.436 191.279 147.016 191.447C146.582 191.629 146.106 191.713 145.588 191.713C144.65 191.713 143.894 191.503 143.334 191.069C142.774 190.649 142.48 190.047 142.48 189.277H143.628ZM156.397 190.579V191.629H155.767C155.305 191.629 154.983 191.545 154.787 191.349C154.591 191.167 154.479 190.887 154.479 190.523C153.919 191.321 153.121 191.713 152.085 191.713C151.287 191.713 150.643 191.531 150.167 191.153C149.691 190.789 149.453 190.271 149.453 189.627C149.453 188.913 149.691 188.367 150.181 187.975C150.671 187.597 151.385 187.401 152.323 187.401H154.423V186.911C154.423 186.449 154.255 186.085 153.947 185.819C153.639 185.567 153.205 185.427 152.645 185.427C152.141 185.427 151.735 185.539 151.413 185.763C151.091 185.987 150.895 186.267 150.825 186.631H149.677C149.761 185.931 150.069 185.385 150.601 184.993C151.133 184.601 151.833 184.405 152.701 184.405C153.611 184.405 154.311 184.629 154.815 185.077C155.319 185.525 155.571 186.155 155.571 186.981V190.061C155.571 190.411 155.725 190.579 156.047 190.579H156.397ZM154.423 188.367H152.211C151.147 188.367 150.615 188.773 150.615 189.557C150.615 189.921 150.755 190.201 151.035 190.411C151.315 190.635 151.693 190.733 152.169 190.733C152.869 190.733 153.415 190.551 153.821 190.187C154.213 189.823 154.423 189.333 154.423 188.717V188.367ZM162.599 191.041C162.039 191.489 161.339 191.713 160.499 191.713C159.799 191.713 159.197 191.559 158.679 191.251C158.147 190.943 157.741 190.523 157.461 189.963C157.167 189.403 157.027 188.773 157.027 188.045C157.027 187.331 157.167 186.701 157.461 186.141C157.755 185.595 158.175 185.175 158.707 184.867C159.239 184.559 159.841 184.405 160.541 184.405C161.381 184.405 162.067 184.629 162.613 185.077C163.159 185.525 163.509 186.141 163.649 186.925H162.487C162.375 186.477 162.137 186.113 161.787 185.833C161.423 185.567 161.003 185.427 160.499 185.427C159.813 185.427 159.253 185.679 158.833 186.155C158.413 186.645 158.203 187.275 158.203 188.045C158.203 188.829 158.413 189.473 158.833 189.963C159.253 190.453 159.813 190.691 160.499 190.691C161.017 190.691 161.451 190.565 161.815 190.285C162.165 190.019 162.389 189.641 162.501 189.165H163.649C163.495 189.963 163.145 190.593 162.599 191.041ZM165.452 185.539H164.164V184.489H165.452V182.487H166.6V184.489H168.406V185.539H166.6V189.753C166.6 190.061 166.656 190.271 166.768 190.397C166.88 190.523 167.09 190.579 167.384 190.579H168.63V191.629H167.314C166.642 191.629 166.152 191.489 165.872 191.181C165.592 190.887 165.452 190.411 165.452 189.767V185.539ZM170.553 181.941C170.693 182.081 170.763 182.263 170.763 182.473C170.763 182.697 170.693 182.865 170.553 183.005C170.413 183.145 170.231 183.215 170.021 183.215C169.797 183.215 169.629 183.145 169.489 183.005C169.349 182.865 169.279 182.697 169.279 182.473C169.279 182.263 169.349 182.081 169.489 181.941C169.629 181.801 169.797 181.731 170.021 181.731C170.231 181.731 170.413 181.801 170.553 181.941ZM169.447 184.489H170.595V191.629H169.447V184.489ZM173.61 191.251C173.078 190.943 172.658 190.523 172.364 189.963C172.056 189.417 171.916 188.787 171.916 188.059C171.916 187.345 172.056 186.715 172.364 186.155C172.658 185.609 173.078 185.175 173.61 184.867C174.142 184.559 174.758 184.405 175.458 184.405C176.144 184.405 176.76 184.559 177.292 184.867C177.824 185.175 178.244 185.609 178.552 186.155C178.846 186.715 179 187.345 179 188.059C179 188.787 178.846 189.417 178.552 189.963C178.244 190.523 177.824 190.943 177.292 191.251C176.76 191.559 176.144 191.713 175.458 191.713C174.758 191.713 174.142 191.559 173.61 191.251ZM176.69 190.355C177.054 190.131 177.334 189.823 177.53 189.417C177.726 189.025 177.824 188.563 177.824 188.059C177.824 187.555 177.726 187.107 177.53 186.701C177.334 186.309 177.054 185.987 176.69 185.763C176.326 185.539 175.92 185.427 175.458 185.427C174.982 185.427 174.576 185.539 174.212 185.763C173.848 185.987 173.582 186.309 173.386 186.701C173.19 187.107 173.092 187.555 173.092 188.059C173.092 188.563 173.19 189.025 173.386 189.417C173.582 189.823 173.848 190.131 174.212 190.355C174.576 190.579 174.982 190.691 175.458 190.691C175.92 190.691 176.326 190.579 176.69 190.355ZM185.902 185.189C186.434 185.721 186.7 186.533 186.7 187.653V191.629H185.552V187.723C185.552 186.995 185.384 186.435 185.048 186.043C184.712 185.651 184.236 185.455 183.62 185.455C182.948 185.455 182.416 185.693 182.038 186.155C181.646 186.631 181.464 187.261 181.464 188.059V191.629H180.316V184.489H181.31L181.464 185.455C181.996 184.755 182.78 184.405 183.816 184.405C184.684 184.405 185.37 184.671 185.902 185.189ZM188.248 190.369C188.388 190.229 188.584 190.145 188.822 190.145C189.046 190.145 189.242 190.229 189.396 190.369C189.536 190.509 189.62 190.705 189.62 190.929C189.62 191.167 189.536 191.363 189.396 191.503C189.242 191.643 189.046 191.713 188.822 191.713C188.584 191.713 188.388 191.643 188.248 191.503C188.094 191.363 188.024 191.167 188.024 190.929C188.024 190.705 188.094 190.509 188.248 190.369Z" fill="#4A5564"/>
<defs>
<filter id="filter0_d_1_13076" x="0.526196" y="0.8041" width="306.948" height="306.948" filterUnits="userSpaceOnUse" color-interpolation-filters="sRGB">
<feFlood flood-opacity="0" result="BackgroundImageFix"/>
<feColorMatrix in="SourceAlpha" type="matrix" values="0 0 0 0 0 0 0 0 0 0 0 0 0 0 0 0 0 0 127 0" result="hardAlpha"/>
<feOffset dy="2.2779"/>
<feGaussianBlur stdDeviation="14.2369"/>
<feComposite in2="hardAlpha" operator="out"/>
<feColorMatrix type="matrix" values="0 0 0 0 0 0 0 0 0 0 0 0 0 0 0 0 0 0 0.08 0"/>
<feBlend mode="normal" in2="BackgroundImageFix" result="effect1_dropShadow_1_13076"/>
<feBlend mode="normal" in="SourceGraphic" in2="effect1_dropShadow_1_13076" result="shape"/>
</filter>
</defs>
</svg>
