<svg width="14" height="14" viewBox="0 0 14 14" fill="none" xmlns="http://www.w3.org/2000/svg">
<path d="M6.33203 5.0026H7.66536V3.66927H6.33203V5.0026ZM6.9987 12.3359C4.0587 12.3359 1.66536 9.9426 1.66536 7.0026C1.66536 4.0626 4.0587 1.66927 6.9987 1.66927C9.9387 1.66927 12.332 4.0626 12.332 7.0026C12.332 9.9426 9.9387 12.3359 6.9987 12.3359ZM6.9987 0.335938C6.12322 0.335937 5.25631 0.508376 4.44747 0.843407C3.63864 1.17844 2.90371 1.6695 2.28465 2.28856C1.03441 3.5388 0.332031 5.23449 0.332031 7.0026C0.332031 8.77071 1.03441 10.4664 2.28465 11.7166C2.90371 12.3357 3.63864 12.8268 4.44747 13.1618C5.25631 13.4968 6.12322 13.6693 6.9987 13.6693C8.76681 13.6693 10.4625 12.9669 11.7127 11.7166C12.963 10.4664 13.6654 8.77071 13.6654 7.0026C13.6654 6.12712 13.4929 5.26022 13.1579 4.45138C12.8229 3.64254 12.3318 2.90762 11.7127 2.28856C11.0937 1.6695 10.3588 1.17844 9.54992 0.843407C8.74108 0.508376 7.87418 0.335938 6.9987 0.335938ZM6.33203 10.3359H7.66536V6.33594H6.33203V10.3359Z" fill="#F49D1B"/>
</svg>
